<svg width="18" height="19" viewBox="0 0 18 19" fill="none" xmlns="http://www.w3.org/2000/svg">
<path fillRule="evenodd" clipRule="evenodd" d="M9.00004 1.4375C5.78989 1.4375 3.18754 4.03984 3.18754 7.25V7.77808C3.18754 8.30077 3.03283 8.81176 2.74289 9.24667L1.88144 10.5388C0.881616 12.0386 1.6449 14.0771 3.38384 14.5514C3.95055 14.7059 4.52204 14.8366 5.09685 14.9436L5.09827 14.9474C5.67502 16.4863 7.2165 17.5625 9 17.5625C10.7835 17.5625 12.325 16.4863 12.9017 14.9474L12.9031 14.9436C13.478 14.8367 14.0495 14.7059 14.6163 14.5514C16.3552 14.0771 17.1185 12.0386 16.1187 10.5388L15.2572 9.24667C14.9673 8.81176 14.8125 8.30077 14.8125 7.77808V7.25C14.8125 4.03984 12.2102 1.4375 9.00004 1.4375ZM11.5324 15.1527C9.85014 15.3537 8.14985 15.3537 6.46763 15.1527C7.00085 15.9189 7.92828 16.4375 9 16.4375C10.0717 16.4375 10.9991 15.9189 11.5324 15.1527ZM4.31254 7.25C4.31254 4.66117 6.41121 2.5625 9.00004 2.5625C11.5889 2.5625 13.6875 4.66117 13.6875 7.25V7.77808C13.6875 8.52287 13.908 9.251 14.3211 9.87071L15.1826 11.1629C15.7565 12.0237 15.3184 13.1938 14.3202 13.466C10.8371 14.416 7.16304 14.416 3.67985 13.466C2.68172 13.1938 2.24361 12.0237 2.8175 11.1629L3.67895 9.87071C4.09209 9.251 4.31254 8.52287 4.31254 7.77808V7.25Z" fill="#2E2E2E"/>
</svg>
