<svg width="18" height="19" viewBox="0 0 18 19" fill="none" xmlns="http://www.w3.org/2000/svg">
<path d="M12.75 11C13.1642 11 13.5 10.6642 13.5 10.25C13.5 9.83579 13.1642 9.5 12.75 9.5C12.3358 9.5 12 9.83579 12 10.25C12 10.6642 12.3358 11 12.75 11Z" fill="#2E2E2E"/>
<path d="M12.75 14C13.1642 14 13.5 13.6642 13.5 13.25C13.5 12.8358 13.1642 12.5 12.75 12.5C12.3358 12.5 12 12.8358 12 13.25C12 13.6642 12.3358 14 12.75 14Z" fill="#2E2E2E"/>
<path d="M9.75 10.25C9.75 10.6642 9.41421 11 9 11C8.58579 11 8.25 10.6642 8.25 10.25C8.25 9.83579 8.58579 9.5 9 9.5C9.41421 9.5 9.75 9.83579 9.75 10.25Z" fill="#2E2E2E"/>
<path d="M9.75 13.25C9.75 13.6642 9.41421 14 9 14C8.58579 14 8.25 13.6642 8.25 13.25C8.25 12.8358 8.58579 12.5 9 12.5C9.41421 12.5 9.75 12.8358 9.75 13.25Z" fill="#2E2E2E"/>
<path d="M5.25 11C5.66421 11 6 10.6642 6 10.25C6 9.83579 5.66421 9.5 5.25 9.5C4.83579 9.5 4.5 9.83579 4.5 10.25C4.5 10.6642 4.83579 11 5.25 11Z" fill="#2E2E2E"/>
<path d="M5.25 14C5.66421 14 6 13.6642 6 13.25C6 12.8358 5.66421 12.5 5.25 12.5C4.83579 12.5 4.5 12.8358 4.5 13.25C4.5 13.6642 4.83579 14 5.25 14Z" fill="#2E2E2E"/>
<path fillRule="evenodd" clipRule="evenodd" d="M5.25 1.8125C5.56066 1.8125 5.8125 2.06434 5.8125 2.375V2.94704C6.309 2.93749 6.856 2.93749 7.45759 2.9375H10.5423C11.1439 2.93749 11.691 2.93749 12.1875 2.94704V2.375C12.1875 2.06434 12.4393 1.8125 12.75 1.8125C13.0607 1.8125 13.3125 2.06434 13.3125 2.375V2.99532C13.5075 3.01018 13.6921 3.02886 13.8668 3.05235C14.7461 3.17057 15.4578 3.41966 16.0191 3.98093C16.5803 4.5422 16.8294 5.25392 16.9476 6.13323C17.0625 6.98764 17.0625 8.07935 17.0625 9.45766V11.0423C17.0625 12.4206 17.0625 13.5124 16.9476 14.3668C16.8294 15.2461 16.5803 15.9578 16.0191 16.5191C15.4578 17.0803 14.7461 17.3294 13.8668 17.4476C13.0124 17.5625 11.9206 17.5625 10.5423 17.5625H7.45769C6.07939 17.5625 4.98764 17.5625 4.13323 17.4476C3.25392 17.3294 2.5422 17.0803 1.98093 16.5191C1.41966 15.9578 1.17057 15.2461 1.05235 14.3668C0.937479 13.5124 0.937488 12.4206 0.9375 11.0423V9.45769C0.937488 8.07937 0.937479 6.98764 1.05235 6.13323C1.17057 5.25392 1.41966 4.5422 1.98093 3.98093C2.5422 3.41966 3.25392 3.17057 4.13323 3.05235C4.30793 3.02886 4.49254 3.01018 4.6875 2.99532V2.375C4.6875 2.06434 4.93934 1.8125 5.25 1.8125ZM4.28314 4.16732C3.52857 4.26877 3.09383 4.45902 2.77643 4.77643C2.45902 5.09383 2.26877 5.52857 2.16732 6.28314C2.15014 6.41093 2.13577 6.54546 2.12376 6.6875H15.8762C15.8642 6.54546 15.8499 6.41093 15.8327 6.28314C15.7312 5.52857 15.541 5.09383 15.2236 4.77643C14.9062 4.45902 14.4714 4.26877 13.7169 4.16732C12.9461 4.06369 11.9301 4.0625 10.5 4.0625H7.5C6.06989 4.0625 5.05388 4.06369 4.28314 4.16732ZM2.0625 9.5C2.0625 8.85949 2.06274 8.30205 2.07231 7.8125H15.9277C15.9373 8.30205 15.9375 8.85949 15.9375 9.5V11C15.9375 12.4301 15.9363 13.4461 15.8327 14.2169C15.7312 14.9714 15.541 15.4062 15.2236 15.7236C14.9062 16.041 14.4714 16.2312 13.7169 16.3327C12.9461 16.4363 11.9301 16.4375 10.5 16.4375H7.5C6.06989 16.4375 5.05388 16.4363 4.28314 16.3327C3.52857 16.2312 3.09383 16.041 2.77643 15.7236C2.45902 15.4062 2.26877 14.9714 2.16732 14.2169C2.06369 13.4461 2.0625 12.4301 2.0625 11V9.5Z" fill="#2E2E2E"/>
</svg>
