<svg width="20" height="20" viewBox="0 0 20 20" fill="none" xmlns="http://www.w3.org/2000/svg">
<path fillRule="evenodd" clipRule="evenodd" d="M9.95214 1.0415H10.0478C11.9714 1.04149 13.479 1.04148 14.6552 1.19963C15.8592 1.36149 16.8092 1.69928 17.5548 2.44495C18.3005 3.19063 18.6383 4.14065 18.8002 5.34459C18.9583 6.52083 18.9583 8.02836 18.9583 9.95203V10.0476C18.9583 11.9713 18.9583 13.4788 18.8002 14.6551C18.6383 15.859 18.3005 16.809 17.5548 17.5547C16.8092 18.3004 15.8592 18.6382 14.6552 18.8C13.479 18.9582 11.9714 18.9582 10.0478 18.9582H9.95215C8.02849 18.9582 6.52095 18.9582 5.34471 18.8C4.14077 18.6382 3.19075 18.3004 2.44507 17.5547C1.6994 16.809 1.36161 15.859 1.19975 14.6551C1.04161 13.4788 1.04162 11.9713 1.04163 10.0477V9.95202C1.04162 8.02836 1.04161 6.52083 1.19975 5.34459C1.36161 4.14065 1.6994 3.19063 2.44507 2.44495C3.19075 1.69928 4.14077 1.36149 5.34471 1.19963C6.52095 1.04148 8.02848 1.04149 9.95214 1.0415ZM5.51127 2.43848C4.44594 2.58171 3.80367 2.85412 3.32896 3.32883C2.85424 3.80355 2.58183 4.44582 2.4386 5.51115C2.29295 6.59447 2.29163 8.01798 2.29163 9.99984C2.29163 11.9817 2.29295 13.4052 2.4386 14.4885C2.58183 15.5539 2.85424 16.1961 3.32896 16.6708C3.80367 17.1456 4.44594 17.418 5.51127 17.5612C6.59459 17.7068 8.01811 17.7082 9.99996 17.7082C11.9818 17.7082 13.4053 17.7068 14.4886 17.5612C15.554 17.418 16.1962 17.1456 16.671 16.6708C17.1457 16.1961 17.4181 15.5539 17.5613 14.4885C17.707 13.4052 17.7083 11.9817 17.7083 9.99984C17.7083 8.01798 17.707 6.59447 17.5613 5.51115C17.4181 4.44582 17.1457 3.80355 16.671 3.32883C16.1962 2.85412 15.554 2.58171 14.4886 2.43848C13.4053 2.29283 11.9818 2.2915 9.99996 2.2915C8.01811 2.2915 6.59459 2.29283 5.51127 2.43848ZM8.76433 5.38058C9.01428 5.61864 9.02393 6.01425 8.78588 6.26421L6.40493 8.7642C6.28696 8.88807 6.12339 8.95817 5.95234 8.95817C5.78129 8.95817 5.61772 8.88807 5.49975 8.7642L4.54737 7.76421C4.30932 7.51425 4.31897 7.11864 4.56893 6.88058C4.81888 6.64253 5.21449 6.65218 5.45255 6.90214L5.95234 7.42692L7.88071 5.40214C8.11876 5.15218 8.51437 5.14253 8.76433 5.38058ZM10.2083 7.49984C10.2083 7.15466 10.4881 6.87484 10.8333 6.87484H15C15.3451 6.87484 15.625 7.15466 15.625 7.49984C15.625 7.84502 15.3451 8.12484 15 8.12484H10.8333C10.4881 8.12484 10.2083 7.84502 10.2083 7.49984ZM8.76433 11.2139C9.01428 11.452 9.02393 11.8476 8.78588 12.0975L6.40493 14.5975C6.28696 14.7214 6.12339 14.7915 5.95234 14.7915C5.78129 14.7915 5.61772 14.7214 5.49975 14.5975L4.54737 13.5975C4.30932 13.3476 4.31897 12.952 4.56893 12.7139C4.81888 12.4759 5.21449 12.4855 5.45255 12.7355L5.95234 13.2603L7.88071 11.2355C8.11876 10.9855 8.51437 10.9759 8.76433 11.2139ZM10.2083 13.3332C10.2083 12.988 10.4881 12.7082 10.8333 12.7082H15C15.3451 12.7082 15.625 12.988 15.625 13.3332C15.625 13.6783 15.3451 13.9582 15 13.9582H10.8333C10.4881 13.9582 10.2083 13.6783 10.2083 13.3332Z" fill="#2E2E2E"/>
</svg>
