<?xml version="1.0" standalone="no"?>
<!DOCTYPE svg PUBLIC "-//W3C//DTD SVG 20010904//EN"
 "http://www.w3.org/TR/2001/REC-SVG-20010904/DTD/svg10.dtd">
<svg version="1.0" xmlns="http://www.w3.org/2000/svg"
 width="512.000000pt" height="512.000000pt" viewBox="0 0 512.000000 512.000000"
 preserveAspectRatio="xMidYMid meet">

<g transform="translate(0.000000,512.000000) scale(0.100000,-0.100000)"
fill="#000000" stroke="none">
<path d="M2467 4860 c-110 -61 -128 -225 -32 -309 44 -38 91 -51 187 -51 179
0 445 -53 629 -126 394 -155 703 -404 932 -749 423 -641 423 -1488 0 -2130
-227 -343 -549 -602 -936 -752 -356 -137 -792 -161 -1171 -63 -540 139 -999
508 -1248 1005 -141 279 -208 562 -208 875 0 400 112 759 342 1102 81 120 83
124 83 183 0 46 -6 69 -24 98 -64 103 -197 124 -287 45 -53 -47 -187 -255
-259 -403 -107 -220 -171 -417 -212 -663 -25 -151 -25 -582 0 -727 116 -664
471 -1211 1022 -1577 270 -179 576 -298 913 -355 151 -25 582 -25 727 0 391
69 728 212 1032 441 415 311 728 779 853 1273 56 221 65 304 65 588 -1 278 -9
353 -61 560 -165 659 -621 1223 -1229 1520 -307 150 -593 222 -915 231 -152 4
-168 3 -203 -16z"/>
<path d="M2467 4220 c-110 -61 -128 -225 -32 -309 42 -37 90 -51 175 -51 160
0 384 -60 553 -147 341 -176 586 -500 673 -888 24 -110 29 -350 10 -470 -88
-534 -486 -952 -1021 -1071 -110 -24 -350 -29 -470 -10 -411 68 -765 325 -952
692 -89 173 -129 323 -142 531 -9 136 -20 165 -84 217 -35 28 -46 31 -107 31
-60 0 -74 -4 -111 -30 -66 -47 -79 -81 -79 -205 0 -401 181 -828 480 -1130
240 -243 520 -396 860 -471 122 -26 416 -37 553 -20 636 80 1184 530 1385
1138 64 194 77 284 77 538 -1 257 -11 327 -80 532 -92 275 -266 538 -477 723
-299 260 -657 405 -1028 416 -132 4 -148 3 -183 -16z"/>
<path d="M2467 3579 c-79 -41 -116 -147 -83 -234 32 -81 104 -125 211 -125 75
0 170 -26 264 -72 68 -32 101 -57 166 -122 131 -132 195 -284 195 -465 0 -110
-20 -195 -72 -300 -32 -68 -57 -101 -122 -166 -125 -125 -243 -178 -429 -195
-109 -9 -143 -24 -191 -83 -28 -35 -31 -46 -31 -107 0 -60 4 -74 30 -111 45
-63 83 -79 186 -79 186 0 377 60 549 171 88 57 234 206 298 303 59 90 104 193
134 304 26 99 36 321 18 429 -69 429 -406 777 -830 857 -118 23 -245 20 -293
-5z"/>
</g>
</svg>
