<svg width="18" height="19" viewBox="0 0 18 19" fill="none" xmlns="http://www.w3.org/2000/svg">
<path fillRule="evenodd" clipRule="evenodd" d="M3.71475 2.1875C3.72646 2.1875 3.73821 2.1875 3.75 2.1875L14.2853 2.1875C14.7855 2.18748 15.2131 2.18746 15.5548 2.23057C15.9173 2.27629 16.2676 2.37897 16.5554 2.64893C16.8482 2.92366 16.9645 3.26642 17.0156 3.62304C17.0626 3.95063 17.0625 4.35798 17.0625 4.82269L17.0625 5.40509C17.0625 5.77147 17.0625 6.08821 17.0352 6.35233C17.0057 6.63655 16.9414 6.9032 16.7869 7.1592C16.6336 7.41328 16.4271 7.5977 16.1891 7.76303C15.9649 7.91877 15.6784 8.08002 15.3415 8.26966L13.1347 9.51196C12.6323 9.79474 12.4574 9.89657 12.3406 9.99795C12.0724 10.2308 11.9189 10.4891 11.8467 10.8128C11.8158 10.9511 11.8125 11.1254 11.8125 11.6547L11.8125 13.7037C11.8125 14.3797 11.8126 14.9535 11.743 15.3947C11.6691 15.8638 11.4974 16.3137 11.0473 16.5952C10.6076 16.8702 10.1231 16.845 9.65235 16.7332C9.19894 16.6255 8.6402 16.4071 7.96977 16.1449L7.90461 16.1195C7.59057 15.9967 7.31558 15.8892 7.09788 15.7768C6.86392 15.656 6.64665 15.5057 6.48042 15.2718C6.31231 15.0352 6.24491 14.7815 6.21486 14.5222C6.18746 14.2858 6.18748 14.002 6.1875 13.6855L6.1875 11.6547C6.1875 11.1254 6.18416 10.9512 6.15331 10.8128C6.08115 10.4891 5.92757 10.2308 5.65938 9.99795C5.5426 9.89657 5.36769 9.79474 4.86535 9.51196L2.65853 8.26967C2.32162 8.08002 2.03515 7.91877 1.81094 7.76303C1.57293 7.5977 1.36643 7.41328 1.2131 7.1592C1.05861 6.9032 0.99428 6.63655 0.964836 6.35233C0.937473 6.08821 0.937487 5.77147 0.937503 5.40509L0.937504 4.861C0.937504 4.84818 0.937503 4.83541 0.937502 4.82268C0.937467 4.35797 0.937436 3.95063 0.98438 3.62304C1.03548 3.26642 1.15182 2.92366 1.44463 2.64893C1.73237 2.37897 2.08271 2.27629 2.44518 2.23057C2.78694 2.18746 3.21455 2.18748 3.71475 2.1875ZM2.58597 3.34672C2.33573 3.37829 2.25615 3.43018 2.21438 3.46937C2.17769 3.50379 2.12928 3.56439 2.098 3.78262C2.06386 4.02091 2.0625 4.34651 2.0625 4.861V5.37836C2.0625 5.77902 2.0632 6.03708 2.08385 6.23641C2.10308 6.42204 2.13609 6.5113 2.1763 6.57793C2.21768 6.64649 2.28638 6.7235 2.45275 6.83907C2.62804 6.96083 2.86752 7.09631 3.23245 7.30174L5.41722 8.53162C5.43768 8.54313 5.45783 8.55447 5.47768 8.56564C5.89671 8.80138 6.18209 8.96193 6.3969 9.14842C6.84042 9.53347 7.12498 10.0012 7.25135 10.568C7.31277 10.8434 7.31267 11.1523 7.31252 11.5884C7.31251 11.6102 7.3125 11.6323 7.3125 11.6547V13.6568C7.3125 14.0109 7.31338 14.2287 7.33238 14.3927C7.34957 14.541 7.37664 14.5908 7.39748 14.6201C7.42019 14.6521 7.46518 14.7004 7.61402 14.7772C7.77333 14.8595 7.99281 14.946 8.33942 15.0815C9.06018 15.3633 9.54498 15.5514 9.91232 15.6386C10.2713 15.7239 10.3896 15.6797 10.4508 15.6414C10.5017 15.6095 10.5805 15.5448 10.6317 15.2195C10.6858 14.8764 10.6875 14.3926 10.6875 13.6568V11.6547C10.6875 11.6323 10.6875 11.6102 10.6875 11.5884C10.6873 11.1523 10.6872 10.8434 10.7487 10.568C10.875 10.0012 11.1596 9.53347 11.6031 9.14842C11.8179 8.96194 12.1033 8.80139 12.5223 8.56565C12.5422 8.55448 12.5623 8.54314 12.5828 8.53162L14.7676 7.30174C15.1325 7.09631 15.372 6.96083 15.5473 6.83907C15.7136 6.7235 15.7823 6.64649 15.8237 6.57793C15.8639 6.5113 15.8969 6.42204 15.9162 6.23641C15.9368 6.03708 15.9375 5.77902 15.9375 5.37836V4.861C15.9375 4.34651 15.9361 4.02091 15.902 3.78262C15.8707 3.56439 15.8223 3.50379 15.7856 3.46937C15.7439 3.43018 15.6643 3.37829 15.414 3.34672C15.1511 3.31356 14.7953 3.3125 14.25 3.3125H3.75C3.20473 3.3125 2.84891 3.31356 2.58597 3.34672Z" fill="#2E2E2E"/>
</svg>
