<svg width="20" height="20" viewBox="0 0 20 20" fill="none" xmlns="http://www.w3.org/2000/svg">
<path d="M15 5.96651C14.95 5.95817 14.8917 5.95817 14.8417 5.96651C13.6917 5.92484 12.775 4.98317 12.775 3.81651C12.775 2.62484 13.7334 1.6665 14.925 1.6665C16.1167 1.6665 17.075 2.63317 17.075 3.81651C17.0667 4.98317 16.15 5.92484 15 5.96651Z" stroke="black" stroke-width="1.5" stroke-linecap="round" stroke-linejoin="round"/>
<path d="M14.1417 12.0333C15.2834 12.225 16.5417 12.025 17.425 11.4333C18.6 10.65 18.6 9.36664 17.425 8.58331C16.5334 7.99164 15.2584 7.79163 14.1167 7.99163" stroke="black" stroke-width="1.5" stroke-linecap="round" stroke-linejoin="round"/>
<path d="M4.9749 5.96651C5.0249 5.95817 5.08324 5.95817 5.13324 5.96651C6.28324 5.92484 7.1999 4.98317 7.1999 3.81651C7.1999 2.62484 6.24157 1.6665 5.0499 1.6665C3.85824 1.6665 2.8999 2.63317 2.8999 3.81651C2.90824 4.98317 3.8249 5.92484 4.9749 5.96651Z" stroke="black" stroke-width="1.5" stroke-linecap="round" stroke-linejoin="round"/>
<path d="M5.83328 12.0333C4.69162 12.225 3.43328 12.025 2.54995 11.4333C1.37495 10.65 1.37495 9.36664 2.54995 8.58331C3.44162 7.99164 4.71662 7.79163 5.85828 7.99163" stroke="black" stroke-width="1.5" stroke-linecap="round" stroke-linejoin="round"/>
<path d="M10 12.1916C9.95002 12.1833 9.89169 12.1833 9.84169 12.1916C8.69169 12.1499 7.77502 11.2083 7.77502 10.0416C7.77502 8.84994 8.73336 7.8916 9.92502 7.8916C11.1167 7.8916 12.075 8.85827 12.075 10.0416C12.0667 11.2083 11.15 12.1583 10 12.1916Z" stroke="black" stroke-width="1.5" stroke-linecap="round" stroke-linejoin="round"/>
<path d="M7.57498 14.8168C6.39998 15.6001 6.39998 16.8835 7.57498 17.6668C8.90831 18.5585 11.0916 18.5585 12.425 17.6668C13.6 16.8835 13.6 15.6001 12.425 14.8168C11.1 13.9335 8.90831 13.9335 7.57498 14.8168Z" stroke="black" stroke-width="1.5" stroke-linecap="round" stroke-linejoin="round"/>
</svg>
