<svg width="20" height="20" viewBox="0 0 20 20" fill="none" xmlns="http://www.w3.org/2000/svg">
<path fillRule="evenodd" clipRule="evenodd" d="M10 6.87484C8.27415 6.87484 6.87504 8.27395 6.87504 9.99984C6.87504 11.7257 8.27415 13.1248 10 13.1248C11.7259 13.1248 13.125 11.7257 13.125 9.99984C13.125 8.27395 11.7259 6.87484 10 6.87484ZM8.12504 9.99984C8.12504 8.9643 8.96451 8.12484 10 8.12484C11.0356 8.12484 11.875 8.9643 11.875 9.99984C11.875 11.0354 11.0356 11.8748 10 11.8748C8.96451 11.8748 8.12504 11.0354 8.12504 9.99984Z" fill="#2E2E2E"/>
<path fillRule="evenodd" clipRule="evenodd" d="M9.97899 1.0415C9.60861 1.0415 9.29941 1.04149 9.04556 1.05881C8.78131 1.07684 8.53171 1.11571 8.28972 1.21595C7.7282 1.44854 7.28207 1.89467 7.04948 2.45619C6.92839 2.74852 6.8956 3.0566 6.88307 3.39147C6.87301 3.66066 6.73715 3.88526 6.53667 4.00101C6.33618 4.11676 6.07375 4.12211 5.83559 3.99624C5.53932 3.83964 5.25611 3.714 4.9424 3.6727C4.33981 3.59337 3.73039 3.75666 3.2482 4.12666C3.0404 4.28611 2.88193 4.48284 2.7342 4.70267C2.59227 4.91385 2.43768 5.18162 2.25249 5.50239L2.23145 5.53884C2.04625 5.8596 1.89165 6.12737 1.77972 6.35586C1.66321 6.59373 1.57207 6.82933 1.53788 7.08901C1.45855 7.6916 1.62185 8.30102 1.99184 8.78321C2.18444 9.03421 2.43481 9.21664 2.71851 9.3949C2.94667 9.53825 3.07327 9.76826 3.07326 9.99982C3.07325 10.2314 2.94664 10.4613 2.71852 10.6047C2.43478 10.7829 2.18438 10.9654 1.99176 11.2164C1.62177 11.6986 1.45847 12.308 1.5378 12.9106C1.57199 13.1703 1.66313 13.4059 1.77964 13.6438C1.89156 13.8722 2.04616 14.14 2.23136 14.4608L2.25241 14.4972C2.4376 14.818 2.59219 15.0858 2.73411 15.2969C2.88185 15.5168 3.04032 15.7135 3.24812 15.873C3.73031 16.243 4.33973 16.4063 4.94232 16.3269C5.25601 16.2856 5.5392 16.16 5.83546 16.0034C6.07365 15.8775 6.33612 15.8829 6.53663 15.9986C6.73714 16.1144 6.87301 16.339 6.88308 16.6082C6.8956 16.9431 6.9284 17.2512 7.04948 17.5435C7.28207 18.105 7.7282 18.5511 8.28972 18.7837C8.53171 18.884 8.78131 18.9228 9.04556 18.9409C9.29941 18.9582 9.6086 18.9582 9.97899 18.9582H10.0211C10.3915 18.9582 10.7007 18.9582 10.9545 18.9409C11.2188 18.9228 11.4684 18.884 11.7104 18.7837C12.2719 18.5511 12.718 18.105 12.9506 17.5435C13.0717 17.2511 13.1045 16.9431 13.117 16.6082C13.1271 16.339 13.2629 16.1144 13.4634 15.9986C13.6639 15.8828 13.9264 15.8775 14.1646 16.0034C14.4608 16.1599 14.744 16.2856 15.0577 16.3269C15.6603 16.4062 16.2697 16.2429 16.7519 15.8729C16.9597 15.7135 17.1181 15.5167 17.2659 15.2969C17.4078 15.0857 17.5624 14.818 17.7475 14.4972L17.7686 14.4607C17.9538 14.14 18.1084 13.8722 18.2203 13.6437C18.3369 13.4058 18.428 13.1702 18.4622 12.9105C18.5415 12.308 18.3782 11.6985 18.0082 11.2163C17.8156 10.9653 17.5652 10.7829 17.2815 10.6046C17.0534 10.4613 16.9268 10.2313 16.9268 9.99979C16.9268 9.76829 17.0534 9.53835 17.2815 9.39504C17.5653 9.21675 17.8157 9.03431 18.0083 8.78327C18.3783 8.30108 18.5416 7.69166 18.4623 7.08907C18.4281 6.82938 18.3369 6.59378 18.2204 6.35592C18.1085 6.12744 17.9539 5.85969 17.7687 5.53897L17.7477 5.50248C17.5625 5.18172 17.4079 4.91391 17.266 4.70273C17.1182 4.4829 16.9598 4.28617 16.752 4.12672C16.2698 3.75672 15.6603 3.59342 15.0577 3.67276C14.7441 3.71405 14.4609 3.83969 14.1646 3.99627C13.9264 4.12216 13.664 4.11681 13.4634 4.00104C13.2629 3.88527 13.1271 3.66065 13.117 3.39143C13.1045 3.05657 13.0717 2.7485 12.9506 2.45619C12.718 1.89467 12.2719 1.44854 11.7104 1.21595C11.4684 1.11571 11.2188 1.07684 10.9545 1.05881C10.7007 1.04149 10.3915 1.0415 10.0211 1.0415H9.97899ZM8.76807 2.3708C8.83237 2.34416 8.93005 2.3196 9.13065 2.30591C9.33687 2.29184 9.6032 2.2915 10 2.2915C10.3969 2.2915 10.6632 2.29184 10.8694 2.30591C11.07 2.3196 11.1677 2.34416 11.232 2.3708C11.4872 2.47652 11.69 2.67931 11.7957 2.93454C11.8291 3.01505 11.8567 3.14056 11.8679 3.43815C11.8926 4.09846 12.2334 4.73424 12.8384 5.08357C13.4435 5.4329 14.1645 5.41017 14.7487 5.1014C15.012 4.96225 15.1345 4.92344 15.2209 4.91206C15.4948 4.876 15.7718 4.95023 15.991 5.11841C16.0462 5.16077 16.1163 5.23308 16.2285 5.39997C16.3438 5.57153 16.4772 5.802 16.6756 6.14567C16.8741 6.48934 17.0069 6.72016 17.0979 6.90578C17.1863 7.08636 17.2139 7.18323 17.223 7.25223C17.259 7.52613 17.1848 7.80314 17.0166 8.02232C16.9636 8.09146 16.8687 8.17816 16.6165 8.33662C16.057 8.68813 15.6768 9.30113 15.6768 9.99973C15.6768 10.6984 16.057 11.3115 16.6165 11.663C16.8686 11.8215 16.9635 11.9082 17.0165 11.9773C17.1847 12.1965 17.2589 12.4735 17.2229 12.7474C17.2138 12.8164 17.1862 12.9133 17.0978 13.0938C17.0069 13.2795 16.874 13.5103 16.6756 13.8539C16.4771 14.1976 16.3437 14.4281 16.2284 14.5996C16.1162 14.7665 16.0461 14.8388 15.9909 14.8812C15.7717 15.0494 15.4947 15.1236 15.2208 15.0876C15.1344 15.0762 15.0119 15.0374 14.7487 14.8982C14.1644 14.5895 13.4434 14.5667 12.8383 14.9161C12.2333 15.2655 11.8926 15.9012 11.8679 16.5615C11.8567 16.8591 11.8291 16.9846 11.7957 17.0651C11.69 17.3204 11.4872 17.5232 11.232 17.6289C11.1677 17.6555 11.07 17.6801 10.8694 17.6938C10.6632 17.7078 10.3969 17.7082 10 17.7082C9.6032 17.7082 9.33687 17.7078 9.13065 17.6938C8.93005 17.6801 8.83237 17.6555 8.76807 17.6289C8.51283 17.5232 8.31005 17.3204 8.20433 17.0651C8.17098 16.9846 8.14333 16.8591 8.1322 16.5615C8.10751 15.9012 7.76668 15.2654 7.16162 14.9161C6.55657 14.5668 5.83556 14.5895 5.25136 14.8983C4.98808 15.0374 4.86556 15.0762 4.77916 15.0876C4.50526 15.1237 4.22825 15.0494 4.00907 14.8813C3.95386 14.8389 3.88375 14.7666 3.77159 14.5997C3.6563 14.4282 3.52284 14.1977 3.32442 13.854C3.126 13.5103 2.99313 13.2795 2.90221 13.0939C2.81376 12.9133 2.78619 12.8164 2.77711 12.7474C2.74105 12.4735 2.81527 12.1965 2.98345 11.9774C3.03651 11.9082 3.13138 11.8215 3.38354 11.6631C3.94303 11.3116 4.32322 10.6985 4.32326 9.99989C4.3233 9.30117 3.94309 8.68806 3.38355 8.33649C3.13145 8.17808 3.03658 8.09139 2.98354 8.02226C2.81536 7.80308 2.74113 7.52607 2.77719 7.25217C2.78627 7.18317 2.81384 7.0863 2.90229 6.90573C2.99321 6.7201 3.12608 6.48928 3.3245 6.14561C3.52292 5.80194 3.65638 5.57147 3.77167 5.39991C3.88383 5.23303 3.95394 5.16071 4.00915 5.11835C4.22833 4.95017 4.50534 4.87594 4.77924 4.912C4.86565 4.92338 4.98817 4.9622 5.25148 5.10137C5.83565 5.41013 6.55663 5.43285 7.16166 5.08355C7.76669 4.73424 8.10751 4.09848 8.1322 3.43819C8.14333 3.14058 8.17098 3.01506 8.20433 2.93454C8.31005 2.67931 8.51284 2.47652 8.76807 2.3708Z" fill="#2E2E2E"/>
</svg>
