<svg width="18" height="18" viewBox="0 0 18 18" fill="none" xmlns="http://www.w3.org/2000/svg">
<path fillRule="evenodd" clipRule="evenodd" d="M8.95663 0.0415048H9.04329C9.79203 0.0414804 10.4164 0.0414599 10.912 0.108098C11.4352 0.178436 11.9075 0.333161 12.2871 0.712719C12.6666 1.09228 12.8214 1.56461 12.8917 2.08777C12.941 2.45411 12.9538 2.89074 12.9571 3.39594C13.4976 3.41329 13.9793 3.44489 14.4075 3.50245C15.3845 3.63381 16.1753 3.91057 16.7989 4.53421C17.4226 5.15784 17.6993 5.94863 17.8307 6.92565C17.9583 7.875 17.9583 9.08803 17.9583 10.6195V10.7135C17.9583 12.245 17.9583 13.458 17.8307 14.4074C17.6993 15.3844 17.4226 16.1752 16.7989 16.7988C16.1753 17.4224 15.3845 17.6992 14.4075 17.8306C13.4581 17.9582 12.2451 17.9582 10.7136 17.9582H7.28628C5.75482 17.9582 4.54179 17.9582 3.59244 17.8306C2.61542 17.6992 1.82463 17.4224 1.201 16.7988C0.57736 16.1752 0.300595 15.3844 0.169239 14.4074C0.0416025 13.458 0.041613 12.245 0.0416262 10.7135V10.6195C0.041613 9.08802 0.0416025 7.875 0.169239 6.92565C0.300595 5.94863 0.57736 5.15784 1.201 4.53421C1.82463 3.91057 2.61542 3.63381 3.59244 3.50245C4.02059 3.44489 4.50236 3.41329 5.04279 3.39594C5.04613 2.89074 5.05897 2.45411 5.10822 2.08777C5.17856 1.56461 5.33328 1.09228 5.71284 0.712719C6.0924 0.333161 6.56473 0.178436 7.08789 0.108098C7.58355 0.0414599 8.20789 0.0414804 8.95663 0.0415048ZM6.29313 3.37632C6.60823 3.37483 6.93907 3.37484 7.28628 3.37484H10.7136C11.0608 3.37484 11.3917 3.37483 11.7068 3.37632C11.7033 2.90105 11.6916 2.54255 11.6528 2.25433C11.6011 1.86978 11.5118 1.7052 11.4032 1.5966C11.2946 1.48801 11.13 1.39865 10.7455 1.34695C10.3429 1.29283 9.8033 1.29151 8.99996 1.29151C8.19662 1.29151 7.65698 1.29283 7.25445 1.34695C6.8699 1.39865 6.70532 1.48801 6.59672 1.5966C6.48813 1.7052 6.39877 1.86978 6.34707 2.25433C6.30832 2.54255 6.29664 2.90105 6.29313 3.37632ZM3.759 4.7413C2.92059 4.85403 2.43755 5.06542 2.08488 5.41809C1.7322 5.77077 1.52081 6.25381 1.40809 7.09221C1.29295 7.9486 1.29163 9.07749 1.29163 10.6665C1.29163 12.2555 1.29295 13.3844 1.40809 14.2408C1.52081 15.0792 1.7322 15.5622 2.08488 15.9149C2.43755 16.2676 2.92059 16.479 3.759 16.5917C4.61539 16.7068 5.74428 16.7082 7.33329 16.7082H10.6666C12.2556 16.7082 13.3845 16.7068 14.2409 16.5917C15.0793 16.479 15.5624 16.2676 15.915 15.9149C16.2677 15.5622 16.4791 15.0792 16.5918 14.2408C16.707 13.3844 16.7083 12.2555 16.7083 10.6665C16.7083 9.07749 16.707 7.9486 16.5918 7.09221C16.4791 6.25381 16.2677 5.77077 15.915 5.41809C15.5624 5.06542 15.0793 4.85403 14.2409 4.7413C13.3845 4.62617 12.2556 4.62484 10.6666 4.62484H7.33329C5.74428 4.62484 4.61539 4.62617 3.759 4.7413ZM8.99996 6.70817C9.34514 6.70817 9.62496 6.98799 9.62496 7.33317V7.3417C10.5323 7.57029 11.2916 8.28567 11.2916 9.27762C11.2916 9.62279 11.0118 9.90262 10.6666 9.90262C10.3214 9.90262 10.0416 9.62279 10.0416 9.27762C10.0416 8.95759 9.68679 8.51373 8.99996 8.51373C8.31313 8.51373 7.95829 8.95759 7.95829 9.27762C7.95829 9.59764 8.31313 10.0415 8.99996 10.0415C10.1541 10.0415 11.2916 10.8413 11.2916 12.0554C11.2916 13.0473 10.5323 13.7627 9.62496 13.9913V13.9998C9.62496 14.345 9.34514 14.6248 8.99996 14.6248C8.65478 14.6248 8.37496 14.345 8.37496 13.9998V13.9913C7.46764 13.7627 6.70829 13.0473 6.70829 12.0554C6.70829 11.7102 6.98812 11.4304 7.33329 11.4304C7.67847 11.4304 7.95829 11.7102 7.95829 12.0554C7.95829 12.3754 8.31313 12.8193 8.99996 12.8193C9.68679 12.8193 10.0416 12.3754 10.0416 12.0554C10.0416 11.7354 9.68679 11.2915 8.99996 11.2915C7.84584 11.2915 6.70829 10.4917 6.70829 9.27762C6.70829 8.28567 7.46764 7.57029 8.37496 7.3417V7.33317C8.37496 6.98799 8.65478 6.70817 8.99996 6.70817Z" fill="#2E2E2E"/>
</svg>
